<svg height="511pt" viewBox="0 0 511.99887 511" width="511pt" xmlns="http://www.w3.org/2000/svg"><path d="m145.65625 323.28125c-46.246094-8.746094-94.375-10.136719-133.292969 28.785156-6.46875 6.464844-6.46875 16.949219 0 23.417969 6.464844 6.46875 16.949219 6.46875 23.417969 0 31.558594-31.558594 71.726562-26.929687 117.980469-16.753906-2.621094-11.921875-5.503907-23.792969-8.105469-35.449219zm0 0" fill="#ffbf14"/><path d="m145.65625 323.28125c-6.890625-1.304688-13.820312-2.445312-20.757812-3.3125 2.507812 11.46875 5.257812 22.808594 7.902343 34.558594 6.835938 1.195312 13.824219 2.632812 20.960938 4.203125-2.636719-11.984375-5.5-23.757813-8.105469-35.449219zm0 0" fill="#e0a812"/><path d="m374.996094 36.269531c6.464844-6.46875 6.46875-16.953125 0-23.421875-6.46875-6.464844-16.953125-6.464844-23.421875 0-92.347657 92.351563 41.917969 230.332032-33.480469 305.734375-35.738281 35.738281-82.519531 25.070313-136.675781 12.488281 2.769531 11.898438 5.546875 23.882813 7.792969 35.761719 51.796874 11.546875 108.011718 19.460938 152.300781-24.832031 92.589843-92.585938-41.890625-230.355469 33.484375-305.730469zm0 0" fill="#ffbf14"/><path d="m189.210938 366.835938c6.195312 1.378906 12.453124 2.707031 18.746093 3.902343-2.125-11.847656-4.785156-23.582031-7.507812-35.328125-6.234375-1.367187-12.582031-2.839844-19.03125-4.335937 2.765625 11.886719 5.53125 23.800781 7.792969 35.761719zm0 0" fill="#e0a812"/><path d="m330.585938 181.90625c-2.765626-11.855469-5.574219-24.007812-7.796876-35.761719-51.792968-11.546875-108.011718-19.457031-152.300781 24.832031-92.15625 92.160157 41.636719 230.617188-33.480469 305.734376-6.46875 6.464843-6.46875 16.949218 0 23.417968 6.464844 6.46875 16.949219 6.46875 23.417969 0 92.9375-92.933594-42.316406-229.933594 33.484375-305.730468 35.738282-35.742188 82.519532-25.070313 136.675782-12.492188zm0 0" fill="#45748c"/><path d="m322.792969 146.144531c-6.34375-1.414062-12.75-2.773437-19.195313-3.988281 2.035156 11.816406 4.644532 23.546875 7.355469 35.28125 6.425781 1.402344 12.972656 2.921875 19.632813 4.46875-2.765626-11.855469-5.574219-24.007812-7.792969-35.761719zm0 0" fill="#3a6175"/><path d="m499.640625 137.496094c-6.46875-6.46875-16.953125-6.46875-23.417969 0-31.558594 31.558594-71.730468 26.929687-117.984375 16.753906 2.644531 12.023438 5.5 23.746094 8.105469 35.449219 51.15625 9.675781 96.507812 8.007812 133.296875-28.785157 6.46875-6.464843 6.46875-16.953124 0-23.417968zm0 0" fill="#45748c"/><path d="m376.59375 157.984375c-6-1.09375-12.121094-2.363281-18.351562-3.734375 2.644531 12.023438 5.496093 23.746094 8.105468 35.449219 6.035156 1.144531 12.105469 2.15625 18.179688 2.976562-2.457032-11.222656-5.324219-23.0625-7.933594-34.691406zm0 0" fill="#3a6175"/><path d="m470.910156 132.183594c-4.910156 4.910156-10.015625 8.882812-15.390625 12.046875l-87.257812-87.261719c3.164062-5.371094 7.136719-10.480469 12.046875-15.390625 9.382812-9.382813 9.382812-24.652344-.003906-34.039063-9.382813-9.386718-24.652344-9.386718-34.039063 0-39.0625 39.0625-39.628906 86.28125-32.796875 128.917969-49.628906-10.230469-104.496094-14.585937-148.289062 29.207031-19.800782 19.800782-31.183594 43.058594-34.800782 71.097657-.527344 4.113281 2.375 7.878906 6.488282 8.410156 4.105468.53125 7.878906-2.375 8.410156-6.488281 3.175781-24.625 13.160156-45.035156 30.523437-62.398438 40.351563-40.351562 91.328125-34.539062 140.558594-23.867187.695313 3.484375 2.550781 12.21875 4.203125 19.46875-49.796875-11.328125-96.003906-18.753907-131.980469 17.210937-79.972656 80 55.828125 216.421875-33.46875 305.71875-3.527343 3.527344-9.269531 3.527344-12.796875 0s-3.527344-9.269531 0-12.796875c56.605469-56.605469 6.027344-137.96875 2.0625-215.785156-.210937-4.144531-3.710937-7.335937-7.882812-7.117187-4.144532.210937-7.328125 3.738281-7.117188 7.882812.820313 16.148438 3.566406 32.328125 6.585938 46.953125-42.632813-6.832031-89.851563-6.261719-128.914063 32.800781-15.023437 15.019532-4.492187 41.089844 17.019531 41.089844 6.429688 0 12.472657-2.503906 17.019532-7.050781 4.910156-4.910157 10.015625-8.882813 15.390625-12.046875l87.261719 87.261718c-3.164063 5.375-7.136719 10.480469-12.046876 15.390626-15.175781 15.179687-4.277343 41.078124 17.019532 41.078124 6.164062 0 12.328125-2.347656 17.019531-7.039062 39.066406-39.0625 39.632813-86.285156 32.796875-128.921875 56.65625 11.683594 107.269531 11.816406 148.289062-29.207031 43.800782-43.796875 39.441407-98.667969 29.207032-148.300782 14.234375 2.265626 28.550781 3.640626 42.976562 3.183594 4.144532-.128906 7.398438-3.597656 7.269532-7.742187-.132813-4.144531-3.59375-7.414063-7.746094-7.269531-13.460938.421874-28.160156-.839844-45.949219-3.976563-1.425781-6.265625-2.53125-10.9375-4.429687-19.183594 41.660156 8.390625 81.308593 10.855469 113.382812-21.214843 3.527344-3.527344 9.265625-3.53125 12.796875 0 3.535156 3.535156 3.539063 9.257812 0 12.796874-14.054687 14.054688-29.925781 23.175782-48.515625 27.890626-4.019531 1.019531-6.453125 5.105468-5.433594 9.125 1.019532 4.023437 5.105469 6.457031 9.125 5.433593 21.289063-5.398437 39.425782-15.808593 55.445313-31.828125 4.546875-4.546875 7.050781-10.589844 7.050781-17.019531 0-21.378906-26.015625-32.089844-41.089844-17.019531zm-440.4375 237.988281c-3.539062 3.539063-9.261718 3.539063-12.800781 0-3.535156-3.535156-3.539063-9.257813 0-12.796875 33.460937-33.460938 75.15625-35.839844 121.75-27.601562 1.417969 6.222656 2.769531 11.96875 4.429687 19.183593-41.65625-8.390625-81.308593-10.855469-113.378906 21.214844zm40.757813-7.917969c20.378906-6.261718 44.75-3.871094 76.214843 2.792969 6.664063 31.460937 9.054688 55.835937 2.789063 76.210937zm116.445312-37.4375c-5.726562-24.726562-10.789062-47.789062-10.566406-68.65625l79.222656 79.222656c-20.867187.21875-43.929687-4.839843-68.65625-10.566406zm87.921875 8.589844-96.511718-96.511719c2.382812-11.394531 7.101562-21.96875 15.078124-31.625l113.054688 113.058594c-9.652344 7.976563-20.230469 12.691406-31.621094 15.078125zm42.242188-25.699219-113.054688-113.058593c9.652344-7.972657 20.230469-12.691407 31.621094-15.074219l96.507812 96.511719c-2.382812 11.390624-7.097656 21.96875-15.074218 31.621093zm6.488281-119.542969c5.726563 24.726563 10.785156 47.789063 10.5625 68.65625l-79.21875-79.21875c20.867187-.226562 43.925781 4.835938 68.65625 10.5625zm11.875 148.527344c-40.351563 40.351563-91.328125 34.542969-140.5625 23.867188-.6875-3.445313-2.546875-12.203125-4.199219-19.46875 49.542969 11.273437 95.941406 18.824218 131.964844-17.199219 80.546875-80.546875-56.511719-215.738281 33.480469-305.730469 3.527343-3.527344 9.269531-3.53125 12.800781 0 3.527344 3.527344 3.527344 9.269532 0 12.796875-80.0625 80.0625 56.019531 216.230469-33.484375 305.734375zm28.355469-188.761718c-6.664063-31.457032-9.054688-55.832032-2.789063-76.210938l79.003907 79.003906c-20.378907 6.265625-44.753907 3.875-76.214844-2.792968zm0 0"/></svg>